<svg width="404" height="230" viewBox="0 0 404 230" fill="none" xmlns="http://www.w3.org/2000/svg">
<g clip-path="url(#clip0_146_770)">
<path d="M159.126 230.102H33.1125C32.0306 230.102 30.959 230.042 29.8822 229.934C28.8107 229.821 27.7443 229.659 26.6883 229.438C25.6324 229.217 24.5868 228.947 23.5569 228.617C22.5217 228.294 21.5074 227.916 20.5138 227.489C19.5203 227.058 18.5424 226.583 17.5956 226.054C16.6437 225.525 15.7178 224.953 14.8231 224.327C13.9284 223.706 13.0597 223.042 12.2274 222.33C11.3951 221.622 10.5993 220.872 9.8346 220.079C9.06994 219.291 8.34689 218.46 7.66546 217.596C6.97883 216.732 6.33901 215.831 5.7408 214.903C5.1374 213.974 4.58601 213.014 4.07623 212.026C3.56646 211.044 3.10871 210.034 2.69256 208.998C2.28162 207.967 1.9175 206.915 1.60539 205.84C1.28808 204.772 1.028 203.687 0.814723 202.591C0.606652 201.496 0.445397 200.389 0.33616 199.277C0.232124 198.16 0.174905 197.048 0.174905 195.925V104.272C0.169703 102.113 0.36737 99.9706 0.762705 97.8548C1.15804 95.7336 1.74584 93.6718 2.52611 91.6694C3.30637 89.6669 4.2635 87.767 5.39749 85.9535C6.53667 84.1454 7.82672 82.4668 9.27801 80.9177L76.6878 8.58186C77.3172 7.90718 77.9726 7.26489 78.6645 6.65499C79.3511 6.05048 80.0689 5.47836 80.8128 4.94401C81.5619 4.41507 82.3265 3.91851 83.1224 3.46513C83.9131 3.01714 84.7245 2.60694 85.562 2.23452C86.3943 1.8675 87.2422 1.54366 88.1057 1.26839C88.9692 0.987723 89.8431 0.755636 90.7274 0.566726C91.6169 0.377819 92.5116 0.237485 93.4115 0.14573C94.3114 0.0485759 95.2113 0 96.1164 0C97.0215 0 97.9266 0.0485759 98.8265 0.14573C99.7265 0.237485 100.621 0.377819 101.505 0.566726C102.39 0.755636 103.269 0.987723 104.132 1.26839C104.996 1.54366 105.844 1.8675 106.676 2.23452C107.508 2.60694 108.32 3.01714 109.116 3.46513C109.906 3.91851 110.676 4.41507 111.42 4.94401C112.164 5.47836 112.882 6.05048 113.574 6.65499C114.26 7.26489 114.921 7.90718 115.545 8.58186L189.239 87.6591C189.702 88.1503 190.112 88.6792 190.471 89.2567C190.83 89.8288 191.132 90.4334 191.377 91.0702C191.621 91.7071 191.803 92.3602 191.923 93.0349C192.042 93.7096 192.1 94.3896 192.089 95.0751C192.079 95.7606 192.006 96.4353 191.865 97.1045C191.73 97.7738 191.527 98.4269 191.267 99.053C191.007 99.6845 190.685 100.278 190.31 100.84C189.936 101.406 189.509 101.924 189.036 102.399C188.562 102.874 188.047 103.301 187.491 103.668C186.934 104.04 186.352 104.353 185.738 104.602C185.124 104.855 184.489 105.039 183.839 105.163C183.189 105.282 182.533 105.336 181.878 105.325C181.217 105.309 180.562 105.228 179.917 105.082C179.272 104.936 178.648 104.726 178.044 104.45C177.441 104.175 176.869 103.84 176.328 103.452C175.787 103.058 175.287 102.615 174.83 102.119L101.131 23.0739C100.808 22.7176 100.455 22.3992 100.07 22.1185C99.6848 21.8379 99.2791 21.6058 98.8474 21.4115C98.4156 21.2172 97.9735 21.0714 97.5105 20.9689C97.0527 20.8717 96.5846 20.8232 96.1164 20.8232C95.6483 20.8232 95.1853 20.8717 94.7223 20.9689C94.2646 21.0714 93.8172 21.2172 93.3855 21.4115C92.9537 21.6058 92.548 21.8379 92.1631 22.1185C91.7781 22.3992 91.4244 22.7176 91.1071 23.0739L23.6869 95.3774C22.5789 96.5756 21.7259 97.9465 21.1276 99.4902C20.5346 101.028 20.2433 102.631 20.2538 104.294V195.925C20.2538 196.805 20.337 197.674 20.5034 198.532C20.6699 199.396 20.9144 200.233 21.2369 201.042C21.5646 201.852 21.9599 202.624 22.4281 203.352C22.9015 204.081 23.432 204.756 24.0302 205.376C24.6284 205.997 25.2787 206.553 25.9861 207.039C26.6883 207.53 27.427 207.94 28.2125 208.275C28.9927 208.615 29.799 208.868 30.6261 209.041C31.4584 209.214 32.2959 209.3 33.1385 209.3H159.152C159.812 209.3 160.462 209.365 161.107 209.5C161.752 209.635 162.382 209.829 162.99 210.094C163.594 210.353 164.176 210.671 164.723 211.054C165.269 211.432 165.773 211.864 166.242 212.344C166.704 212.83 167.121 213.354 167.485 213.92C167.854 214.487 168.161 215.092 168.411 215.718C168.666 216.349 168.853 217.002 168.983 217.672C169.113 218.341 169.175 219.016 169.175 219.701C169.175 220.381 169.113 221.061 168.983 221.73C168.853 222.4 168.666 223.047 168.411 223.679C168.161 224.31 167.854 224.909 167.485 225.476C167.121 226.048 166.704 226.572 166.242 227.052C165.773 227.538 165.269 227.97 164.723 228.348C164.176 228.725 163.594 229.049 162.99 229.308C162.382 229.573 161.752 229.767 161.107 229.902C160.462 230.032 159.812 230.102 159.152 230.102H159.126Z" fill="#FFC167"/>
<path d="M98.6219 157.98V139.296C98.6219 135.831 98.5595 131.16 98.4347 125.292C89.5969 125.292 83.7761 125.417 80.9775 125.667C80.7955 124.934 80.707 123.826 80.707 122.338C80.707 120.632 81.0295 119.487 81.685 118.905C82.3352 118.312 83.3755 117.979 84.806 117.906C86.3562 117.854 90.0078 117.823 95.7506 117.823H106.737C117.192 117.823 123.518 117.734 125.713 117.552C125.89 118.301 125.983 119.394 125.983 120.819C125.983 122.499 125.656 123.638 125.005 124.231C124.35 124.814 123.31 125.142 121.884 125.209C120.147 125.266 115.814 125.292 108.88 125.292C108.573 132.024 108.422 137.543 108.422 141.855V160.581C108.422 168.894 109.015 175.001 110.211 178.912C108.474 179.526 106.549 179.828 104.427 179.828C102.107 179.828 100.526 179.427 99.6831 178.621C98.8508 177.82 98.4347 176.447 98.4347 174.501C98.4347 173.534 98.4607 171.084 98.5179 167.156C98.5855 163.234 98.6219 160.176 98.6219 157.98Z" fill="#468F62"/>
<path d="M146.811 161.185C145.115 161.185 142.842 161.112 139.986 160.956C140.621 165.398 142.046 168.644 144.251 170.694C146.457 172.748 149.183 173.773 152.429 173.773C154.104 173.773 155.846 173.347 157.651 172.483C159.451 171.609 160.783 170.35 161.646 168.696C164.71 170.35 166.244 172.098 166.244 173.94C166.244 176.077 164.772 177.7 161.833 178.808C158.905 179.916 155.633 180.473 152.012 180.473C146.186 180.473 140.985 178.553 136.407 174.709C131.83 170.855 129.541 165.279 129.541 157.98C129.541 150.323 131.731 144.466 136.116 140.398C140.511 136.32 145.692 134.281 151.659 134.281C156.455 134.281 160.325 135.592 163.269 138.214C166.224 140.825 167.701 143.936 167.701 147.556C167.701 150.469 167.16 152.878 166.078 154.776C165.006 156.68 163.415 158.064 161.292 158.938C159.18 159.801 157.032 160.389 154.842 160.706C152.647 161.029 149.973 161.185 146.811 161.185ZM150.826 141.064C147.913 141.064 145.422 142.198 143.357 144.456C141.286 146.703 140.074 150.24 139.715 155.067C143.695 155.067 146.629 154.979 148.517 154.797C154.52 154.064 157.526 151.707 157.526 147.723C157.526 145.907 156.886 144.347 155.612 143.041C154.332 141.725 152.741 141.064 150.826 141.064Z" fill="#468F62"/>
<path d="M176.003 135.967L176.419 135.654C178.083 135.171 179.566 134.926 180.872 134.926C182.671 134.926 184.076 135.212 185.075 135.779C186.073 136.336 186.698 137.569 186.947 139.483C191.358 136.019 196.342 134.281 201.908 134.281C207.317 134.281 211.052 136.273 213.123 140.253C217.461 136.273 222.694 134.281 228.811 134.281C232.567 134.281 235.646 135.4 238.049 137.631C240.463 139.868 241.67 143.473 241.67 148.451C241.67 148.648 241.618 150.942 241.524 155.338C241.425 159.723 241.379 162.901 241.379 164.868C241.379 169.986 242.19 174.616 243.813 178.746C241.883 179.537 240.115 179.932 238.507 179.932C235.953 179.932 234.143 179.407 233.077 178.351C232.021 177.3 231.495 175.302 231.495 172.358C231.495 170.194 231.547 166.501 231.662 161.268C231.787 156.04 231.849 152.669 231.849 151.156C231.849 147.743 231.183 145.2 229.851 143.52C228.52 141.829 226.756 140.981 224.566 140.981C221.222 140.981 217.768 142.614 214.205 145.871C214.329 154.194 214.392 160.529 214.392 164.868C214.392 170.501 214.569 175.334 214.933 179.37C213.268 179.62 211.749 179.745 210.376 179.745C206.267 179.745 204.217 178.496 204.217 175.999C204.217 174.933 204.332 171.833 204.571 166.699C204.821 161.57 204.945 156.389 204.945 151.156C204.945 147.743 204.259 145.2 202.885 143.52C201.523 141.829 199.77 140.981 197.621 140.981C194.178 140.981 190.739 142.614 187.301 145.871C187.426 154.194 187.488 160.259 187.488 164.056C187.488 170.049 187.686 175.157 188.092 179.37C186.385 179.62 184.814 179.745 183.389 179.745C179.337 179.745 177.314 178.496 177.314 175.999C177.314 174.574 177.386 171.791 177.542 167.656C177.693 163.526 177.771 159.77 177.771 156.399C177.771 145.996 177.178 139.186 176.003 135.967Z" fill="#468F62"/>
<path d="M274.805 141.064C271.335 141.064 267.944 142.438 264.63 145.184C264.755 160.498 264.817 169.128 264.817 171.068C267.241 172.748 270.3 173.586 273.993 173.586C276.365 173.586 278.352 172.686 279.965 170.881C281.572 169.065 282.701 166.896 283.356 164.368C284.007 161.845 284.334 159.099 284.334 156.129C284.334 150.958 283.45 147.156 281.692 144.726C279.928 142.287 277.634 141.064 274.805 141.064ZM264.36 139.795C268.922 136.123 273.561 134.281 278.279 134.281C283.076 134.281 286.987 135.961 290.015 139.317C293.037 142.677 294.551 147.837 294.551 154.797C294.551 161.97 292.803 168.046 289.307 173.024C285.812 177.992 280.797 180.473 274.264 180.473C270.976 180.473 267.762 179.604 264.63 177.872C264.63 190.45 265.254 198.554 266.503 202.175C264.656 202.783 262.882 203.09 261.176 203.09C258.705 203.09 257.025 202.664 256.141 201.821C255.267 200.989 254.83 199.574 254.83 197.576C254.83 192.916 254.872 185.659 254.955 175.812C255.048 165.965 255.1 159.432 255.1 156.212C255.1 146.058 254.507 139.311 253.332 135.967C254.913 135.275 256.661 134.926 258.575 134.926C262.196 134.926 264.12 136.549 264.36 139.795Z" fill="#468F62"/>
<path d="M303.958 157.98V139.296C303.958 130.671 303.74 123.513 303.313 117.823C305.17 117.521 306.814 117.365 308.244 117.365C312.406 117.365 314.486 118.551 314.486 120.923C314.486 121.287 314.424 122.608 314.299 124.897C314.174 127.176 314.049 129.964 313.925 133.262C313.81 136.549 313.758 139.623 313.758 142.479C317.129 142.552 321.55 142.583 327.033 142.583C332.495 142.583 336.797 142.552 339.933 142.479V139.296C339.933 130.671 339.705 123.513 339.247 117.823C341.13 117.521 342.789 117.365 344.22 117.365C348.381 117.365 350.462 118.551 350.462 120.923C350.462 121.287 350.399 122.541 350.275 124.689C350.15 126.827 350.025 129.506 349.9 132.721C349.786 135.925 349.734 138.973 349.734 141.855V160.581C349.734 168.894 350.306 175.001 351.461 178.912C349.723 179.526 347.799 179.828 345.676 179.828C343.387 179.828 341.817 179.427 340.974 178.621C340.126 177.82 339.705 176.447 339.705 174.501C339.705 173.534 339.736 171.084 339.809 167.156C339.892 163.234 339.933 160.176 339.933 157.98V149.366C336.74 149.465 332.344 149.512 326.742 149.512C321.275 149.512 316.947 149.465 313.758 149.366V160.581C313.758 168.894 314.346 175.001 315.527 178.912C313.789 179.526 311.865 179.828 309.742 179.828C307.422 179.828 305.851 179.427 305.019 178.621C304.187 177.82 303.771 176.447 303.771 174.501C303.771 173.534 303.797 171.084 303.854 167.156C303.922 163.234 303.958 160.176 303.958 157.98Z" fill="#FFB449"/>
<path d="M393.439 158.542C393.439 153.549 392.398 149.387 390.318 146.058C388.237 142.729 385.412 141.064 381.849 141.064C378.239 141.064 375.441 142.438 373.443 145.184C371.456 147.92 370.468 151.567 370.468 156.129C370.468 161.164 371.472 165.336 373.485 168.634C375.508 171.937 378.296 173.586 381.849 173.586C385.537 173.586 388.388 172.223 390.401 169.487C392.424 166.74 393.439 163.094 393.439 158.542ZM381.849 180.473C375.383 180.473 370.176 178.382 366.223 174.189C362.27 169.986 360.293 164.363 360.293 157.315C360.293 150.282 362.27 144.685 366.223 140.523C370.176 136.362 375.383 134.281 381.849 134.281C388.393 134.281 393.657 136.362 397.642 140.523C401.621 144.685 403.613 150.282 403.613 157.315C403.613 164.363 401.621 169.986 397.642 174.189C393.657 178.382 388.393 180.473 381.849 180.473Z" fill="#468F62"/>
</g>
<defs>
<clipPath id="clip0_146_770">
<rect width="404" height="230" fill="white"/>
</clipPath>
</defs>
</svg>
