<svg xmlns="http://www.w3.org/2000/svg" xmlns:xlink="http://www.w3.org/1999/xlink" width="793" zoomAndPan="magnify" viewBox="0 0 595.5 842.249979" height="1122" preserveAspectRatio="xMidYMid meet" version="1.0"><defs><g/><clipPath id="2c3b0708da"><path d="M 156.230469 337.28125 L 300.226562 337.28125 L 300.226562 504 L 156.230469 504 Z M 156.230469 337.28125 " clip-rule="nonzero"/></clipPath></defs><g clip-path="url(#2c3b0708da)"><path fill="#ffc167" d="M 275.691406 503.8125 L 181.0625 503.8125 C 180.25 503.8125 179.445312 503.769531 178.636719 503.691406 C 177.832031 503.609375 177.03125 503.492188 176.238281 503.332031 C 175.445312 503.171875 174.660156 502.976562 173.886719 502.738281 C 173.109375 502.503906 172.347656 502.230469 171.601562 501.921875 C 170.855469 501.609375 170.121094 501.265625 169.410156 500.882812 C 168.695312 500.5 168 500.085938 167.328125 499.632812 C 166.65625 499.183594 166.003906 498.703125 165.378906 498.1875 C 164.753906 497.675781 164.15625 497.132812 163.582031 496.558594 C 163.007812 495.988281 162.464844 495.386719 161.953125 494.761719 C 161.4375 494.136719 160.957031 493.484375 160.507812 492.8125 C 160.054688 492.140625 159.640625 491.445312 159.257812 490.730469 C 158.875 490.019531 158.53125 489.289062 158.21875 488.539062 C 157.910156 487.792969 157.636719 487.03125 157.402344 486.253906 C 157.164062 485.480469 156.96875 484.695312 156.808594 483.902344 C 156.652344 483.109375 156.53125 482.308594 156.449219 481.503906 C 156.371094 480.695312 156.328125 479.890625 156.328125 479.078125 L 156.328125 412.746094 C 156.324219 411.183594 156.472656 409.632812 156.769531 408.101562 C 157.066406 406.566406 157.507812 405.074219 158.09375 403.625 C 158.679688 402.175781 159.398438 400.800781 160.25 399.488281 C 161.105469 398.179688 162.074219 396.964844 163.164062 395.84375 L 213.785156 343.492188 C 214.257812 343.003906 214.75 342.539062 215.269531 342.097656 C 215.785156 341.660156 216.324219 341.246094 216.882812 340.859375 C 217.445312 340.476562 218.019531 340.117188 218.617188 339.789062 C 219.210938 339.464844 219.820312 339.167969 220.449219 338.898438 C 221.074219 338.632812 221.710938 338.398438 222.359375 338.199219 C 223.007812 337.996094 223.664062 337.828125 224.328125 337.691406 C 224.996094 337.554688 225.667969 337.453125 226.34375 337.386719 C 227.019531 337.316406 227.695312 337.28125 228.375 337.28125 C 229.054688 337.28125 229.734375 337.316406 230.410156 337.386719 C 231.085938 337.453125 231.757812 337.554688 232.421875 337.691406 C 233.085938 337.828125 233.746094 337.996094 234.394531 338.199219 C 235.042969 338.398438 235.679688 338.632812 236.304688 338.898438 C 236.929688 339.167969 237.539062 339.464844 238.136719 339.789062 C 238.730469 340.117188 239.308594 340.476562 239.867188 340.859375 C 240.425781 341.246094 240.964844 341.660156 241.484375 342.097656 C 242 342.539062 242.496094 343.003906 242.964844 343.492188 L 298.304688 400.722656 C 298.652344 401.078125 298.960938 401.460938 299.230469 401.878906 C 299.5 402.292969 299.726562 402.730469 299.910156 403.191406 C 300.09375 403.652344 300.230469 404.125 300.320312 404.613281 C 300.410156 405.101562 300.453125 405.59375 300.445312 406.089844 C 300.4375 406.585938 300.382812 407.074219 300.277344 407.558594 C 300.175781 408.042969 300.023438 408.515625 299.828125 408.96875 C 299.632812 409.425781 299.390625 409.855469 299.109375 410.261719 C 298.828125 410.671875 298.507812 411.046875 298.152344 411.390625 C 297.796875 411.734375 297.410156 412.042969 296.992188 412.308594 C 296.574219 412.578125 296.136719 412.804688 295.675781 412.984375 C 295.214844 413.167969 294.738281 413.300781 294.25 413.390625 C 293.761719 413.476562 293.269531 413.515625 292.777344 413.507812 C 292.28125 413.496094 291.789062 413.4375 291.304688 413.332031 C 290.820312 413.226562 290.351562 413.074219 289.898438 412.875 C 289.445312 412.675781 289.015625 412.433594 288.609375 412.152344 C 288.203125 411.867188 287.828125 411.546875 287.484375 411.1875 L 232.140625 353.980469 C 231.898438 353.722656 231.632812 353.492188 231.34375 353.289062 C 231.054688 353.085938 230.75 352.917969 230.425781 352.777344 C 230.101562 352.636719 229.769531 352.53125 229.421875 352.457031 C 229.078125 352.386719 228.726562 352.351562 228.375 352.351562 C 228.023438 352.351562 227.675781 352.386719 227.328125 352.457031 C 226.984375 352.53125 226.648438 352.636719 226.324219 352.777344 C 226 352.917969 225.695312 353.085938 225.40625 353.289062 C 225.117188 353.492188 224.851562 353.722656 224.613281 353.980469 L 173.984375 406.308594 C 173.152344 407.175781 172.511719 408.167969 172.0625 409.285156 C 171.617188 410.398438 171.398438 411.558594 171.40625 412.761719 L 171.40625 479.078125 C 171.40625 479.714844 171.46875 480.34375 171.59375 480.964844 C 171.71875 481.589844 171.902344 482.195312 172.144531 482.78125 C 172.390625 483.367188 172.6875 483.925781 173.039062 484.453125 C 173.394531 484.980469 173.792969 485.46875 174.242188 485.917969 C 174.691406 486.367188 175.179688 486.769531 175.710938 487.121094 C 176.238281 487.476562 176.792969 487.773438 177.382812 488.015625 C 177.96875 488.261719 178.574219 488.445312 179.195312 488.570312 C 179.820312 488.695312 180.449219 488.757812 181.082031 488.757812 L 275.710938 488.757812 C 276.207031 488.757812 276.695312 488.804688 277.179688 488.902344 C 277.664062 489 278.136719 489.140625 278.59375 489.332031 C 279.046875 489.519531 279.484375 489.75 279.894531 490.027344 C 280.304688 490.300781 280.683594 490.613281 281.035156 490.960938 C 281.382812 491.3125 281.695312 491.691406 281.96875 492.101562 C 282.246094 492.511719 282.476562 492.949219 282.664062 493.402344 C 282.855469 493.859375 282.996094 494.332031 283.09375 494.816406 C 283.191406 495.300781 283.238281 495.789062 283.238281 496.285156 C 283.238281 496.777344 283.191406 497.269531 283.09375 497.753906 C 282.996094 498.238281 282.855469 498.707031 282.664062 499.164062 C 282.476562 499.621094 282.246094 500.054688 281.96875 500.464844 C 281.695312 500.878906 281.382812 501.257812 281.035156 501.605469 C 280.683594 501.957031 280.304688 502.269531 279.894531 502.542969 C 279.484375 502.816406 279.046875 503.050781 278.59375 503.238281 C 278.136719 503.429688 277.664062 503.570312 277.179688 503.667969 C 276.695312 503.761719 276.207031 503.8125 275.710938 503.8125 Z M 275.691406 503.8125 " fill-opacity="1" fill-rule="nonzero"/></g><g fill="#468f62" fill-opacity="1"><g transform="translate(216.803247, 465.849364)"><g><path d="M 13.453125 -16.203125 L 13.453125 -30.234375 C 13.453125 -32.835938 13.40625 -36.34375 13.3125 -40.75 C 6.675781 -40.75 2.304688 -40.65625 0.203125 -40.46875 C 0.0664062 -41.019531 0 -41.851562 0 -42.96875 C 0 -44.25 0.242188 -45.109375 0.734375 -45.546875 C 1.222656 -45.992188 2.003906 -46.242188 3.078125 -46.296875 C 4.242188 -46.335938 6.984375 -46.359375 11.296875 -46.359375 L 19.546875 -46.359375 C 27.398438 -46.359375 32.148438 -46.425781 33.796875 -46.5625 C 33.929688 -46 34 -45.179688 34 -44.109375 C 34 -42.847656 33.753906 -41.992188 33.265625 -41.546875 C 32.773438 -41.109375 31.992188 -40.863281 30.921875 -40.8125 C 29.617188 -40.769531 26.363281 -40.75 21.15625 -40.75 C 20.925781 -35.695312 20.8125 -31.550781 20.8125 -28.3125 L 20.8125 -14.25 C 20.8125 -8.007812 21.257812 -3.421875 22.15625 -0.484375 C 20.851562 -0.0234375 19.40625 0.203125 17.8125 0.203125 C 16.070312 0.203125 14.882812 -0.0976562 14.25 -0.703125 C 13.625 -1.304688 13.3125 -2.335938 13.3125 -3.796875 C 13.3125 -4.523438 13.332031 -6.363281 13.375 -9.3125 C 13.425781 -12.257812 13.453125 -14.554688 13.453125 -16.203125 Z M 13.453125 -16.203125 "/></g></g></g><g fill="#468f62" fill-opacity="1"><g transform="translate(250.802962, 465.849364)"><g><path d="M 15.640625 -13.796875 C 14.367188 -13.796875 12.660156 -13.851562 10.515625 -13.96875 C 10.992188 -10.632812 12.0625 -8.195312 13.71875 -6.65625 C 15.375 -5.113281 17.421875 -4.34375 19.859375 -4.34375 C 21.117188 -4.34375 22.425781 -4.664062 23.78125 -5.3125 C 25.132812 -5.96875 26.132812 -6.914062 26.78125 -8.15625 C 29.082031 -6.914062 30.234375 -5.601562 30.234375 -4.21875 C 30.234375 -2.613281 29.128906 -1.394531 26.921875 -0.5625 C 24.722656 0.269531 22.265625 0.6875 19.546875 0.6875 C 15.171875 0.6875 11.265625 -0.753906 7.828125 -3.640625 C 4.390625 -6.535156 2.671875 -10.722656 2.671875 -16.203125 C 2.671875 -21.953125 4.316406 -26.351562 7.609375 -29.40625 C 10.910156 -32.46875 14.800781 -34 19.28125 -34 C 22.882812 -34 25.789062 -33.015625 28 -31.046875 C 30.21875 -29.085938 31.328125 -26.75 31.328125 -24.03125 C 31.328125 -21.84375 30.921875 -20.035156 30.109375 -18.609375 C 29.304688 -17.179688 28.109375 -16.140625 26.515625 -15.484375 C 24.929688 -14.835938 23.316406 -14.394531 21.671875 -14.15625 C 20.023438 -13.914062 18.015625 -13.796875 15.640625 -13.796875 Z M 18.65625 -28.90625 C 16.46875 -28.90625 14.597656 -28.054688 13.046875 -26.359375 C 11.492188 -24.671875 10.582031 -22.015625 10.3125 -18.390625 C 13.300781 -18.390625 15.503906 -18.457031 16.921875 -18.59375 C 21.429688 -19.144531 23.6875 -20.914062 23.6875 -23.90625 C 23.6875 -25.269531 23.207031 -26.441406 22.25 -27.421875 C 21.289062 -28.410156 20.09375 -28.90625 18.65625 -28.90625 Z M 18.65625 -28.90625 "/></g></g></g><g fill="#468f62" fill-opacity="1"><g transform="translate(284.802677, 465.849364)"><g><path d="M 3.5625 -32.734375 L 3.875 -32.96875 C 5.125 -33.332031 6.238281 -33.515625 7.21875 -33.515625 C 8.570312 -33.515625 9.625 -33.300781 10.375 -32.875 C 11.125 -32.457031 11.59375 -31.53125 11.78125 -30.09375 C 15.09375 -32.695312 18.835938 -34 23.015625 -34 C 27.078125 -34 29.882812 -32.503906 31.4375 -29.515625 C 34.695312 -32.503906 38.625 -34 43.21875 -34 C 46.039062 -34 48.351562 -33.160156 50.15625 -31.484375 C 51.96875 -29.804688 52.875 -27.097656 52.875 -23.359375 C 52.875 -23.210938 52.835938 -21.488281 52.765625 -18.1875 C 52.691406 -14.894531 52.65625 -12.507812 52.65625 -11.03125 C 52.65625 -7.1875 53.265625 -3.710938 54.484375 -0.609375 C 53.035156 -0.015625 51.707031 0.28125 50.5 0.28125 C 48.582031 0.28125 47.222656 -0.113281 46.421875 -0.90625 C 45.628906 -1.695312 45.234375 -3.195312 45.234375 -5.40625 C 45.234375 -7.03125 45.273438 -9.804688 45.359375 -13.734375 C 45.453125 -17.660156 45.5 -20.191406 45.5 -21.328125 C 45.5 -23.890625 45 -25.800781 44 -27.0625 C 43 -28.332031 41.675781 -28.96875 40.03125 -28.96875 C 37.519531 -28.96875 34.925781 -27.742188 32.25 -25.296875 C 32.34375 -19.046875 32.390625 -14.289062 32.390625 -11.03125 C 32.390625 -6.800781 32.523438 -3.171875 32.796875 -0.140625 C 31.546875 0.046875 30.40625 0.140625 29.375 0.140625 C 26.289062 0.140625 24.75 -0.796875 24.75 -2.671875 C 24.75 -3.472656 24.835938 -5.800781 25.015625 -9.65625 C 25.203125 -13.507812 25.296875 -17.398438 25.296875 -21.328125 C 25.296875 -23.890625 24.78125 -25.800781 23.75 -27.0625 C 22.726562 -28.332031 21.410156 -28.96875 19.796875 -28.96875 C 17.210938 -28.96875 14.628906 -27.742188 12.046875 -25.296875 C 12.140625 -19.046875 12.1875 -14.492188 12.1875 -11.640625 C 12.1875 -7.140625 12.335938 -3.304688 12.640625 -0.140625 C 11.359375 0.046875 10.179688 0.140625 9.109375 0.140625 C 6.066406 0.140625 4.546875 -0.796875 4.546875 -2.671875 C 4.546875 -3.742188 4.601562 -5.832031 4.71875 -8.9375 C 4.832031 -12.039062 4.890625 -14.859375 4.890625 -17.390625 C 4.890625 -25.203125 4.445312 -30.316406 3.5625 -32.734375 Z M 3.5625 -32.734375 "/></g></g></g><g fill="#468f62" fill-opacity="1"><g transform="translate(342.872683, 465.849364)"><g><path d="M 19.6875 -28.90625 C 17.082031 -28.90625 14.535156 -27.875 12.046875 -25.8125 C 12.140625 -14.3125 12.1875 -7.832031 12.1875 -6.375 C 14.007812 -5.113281 16.304688 -4.484375 19.078125 -4.484375 C 20.859375 -4.484375 22.351562 -5.160156 23.5625 -6.515625 C 24.769531 -7.878906 25.617188 -9.507812 26.109375 -11.40625 C 26.597656 -13.300781 26.84375 -15.363281 26.84375 -17.59375 C 26.84375 -21.476562 26.179688 -24.332031 24.859375 -26.15625 C 23.535156 -27.988281 21.8125 -28.90625 19.6875 -28.90625 Z M 11.84375 -29.859375 C 15.269531 -32.617188 18.753906 -34 22.296875 -34 C 25.898438 -34 28.835938 -32.738281 31.109375 -30.21875 C 33.378906 -27.695312 34.515625 -23.820312 34.515625 -18.59375 C 34.515625 -13.207031 33.203125 -8.644531 30.578125 -4.90625 C 27.953125 -1.175781 24.1875 0.6875 19.28125 0.6875 C 16.8125 0.6875 14.398438 0.0351562 12.046875 -1.265625 C 12.046875 8.179688 12.515625 14.265625 13.453125 16.984375 C 12.066406 17.441406 10.734375 17.671875 9.453125 17.671875 C 7.597656 17.671875 6.335938 17.351562 5.671875 16.71875 C 5.015625 16.09375 4.6875 15.03125 4.6875 13.53125 C 4.6875 10.03125 4.71875 4.582031 4.78125 -2.8125 C 4.851562 -10.207031 4.890625 -15.113281 4.890625 -17.53125 C 4.890625 -25.15625 4.445312 -30.222656 3.5625 -32.734375 C 4.75 -33.253906 6.0625 -33.515625 7.5 -33.515625 C 10.21875 -33.515625 11.664062 -32.296875 11.84375 -29.859375 Z M 11.84375 -29.859375 "/></g></g></g><g fill="#ffb449" fill-opacity="1"><g transform="translate(380.030866, 465.849364)"><g><path d="M 4.421875 -16.203125 L 4.421875 -30.234375 C 4.421875 -36.710938 4.257812 -42.085938 3.9375 -46.359375 C 5.332031 -46.585938 6.566406 -46.703125 7.640625 -46.703125 C 10.765625 -46.703125 12.328125 -45.8125 12.328125 -44.03125 C 12.328125 -43.757812 12.28125 -42.765625 12.1875 -41.046875 C 12.09375 -39.335938 12 -37.242188 11.90625 -34.765625 C 11.820312 -32.296875 11.78125 -29.988281 11.78125 -27.84375 C 14.3125 -27.789062 17.632812 -27.765625 21.75 -27.765625 C 25.851562 -27.765625 29.082031 -27.789062 31.4375 -27.84375 L 31.4375 -30.234375 C 31.4375 -36.710938 31.265625 -42.085938 30.921875 -46.359375 C 32.335938 -46.585938 33.582031 -46.703125 34.65625 -46.703125 C 37.78125 -46.703125 39.34375 -45.8125 39.34375 -44.03125 C 39.34375 -43.757812 39.296875 -42.816406 39.203125 -41.203125 C 39.109375 -39.597656 39.015625 -37.585938 38.921875 -35.171875 C 38.835938 -32.765625 38.796875 -30.476562 38.796875 -28.3125 L 38.796875 -14.25 C 38.796875 -8.007812 39.226562 -3.421875 40.09375 -0.484375 C 38.789062 -0.0234375 37.34375 0.203125 35.75 0.203125 C 34.03125 0.203125 32.851562 -0.0976562 32.21875 -0.703125 C 31.582031 -1.304688 31.265625 -2.335938 31.265625 -3.796875 C 31.265625 -4.523438 31.289062 -6.363281 31.34375 -9.3125 C 31.40625 -12.257812 31.4375 -14.554688 31.4375 -16.203125 L 31.4375 -22.671875 C 29.039062 -22.597656 25.738281 -22.5625 21.53125 -22.5625 C 17.425781 -22.5625 14.175781 -22.597656 11.78125 -22.671875 L 11.78125 -14.25 C 11.78125 -8.007812 12.222656 -3.421875 13.109375 -0.484375 C 11.804688 -0.0234375 10.359375 0.203125 8.765625 0.203125 C 7.023438 0.203125 5.84375 -0.0976562 5.21875 -0.703125 C 4.59375 -1.304688 4.28125 -2.335938 4.28125 -3.796875 C 4.28125 -4.523438 4.300781 -6.363281 4.34375 -9.3125 C 4.394531 -12.257812 4.421875 -14.554688 4.421875 -16.203125 Z M 4.421875 -16.203125 "/></g></g></g><g fill="#468f62" fill-opacity="1"><g transform="translate(424.08538, 465.849364)"><g><path d="M 27.5625 -15.78125 C 27.5625 -19.53125 26.78125 -22.65625 25.21875 -25.15625 C 23.65625 -27.65625 21.535156 -28.90625 18.859375 -28.90625 C 16.148438 -28.90625 14.046875 -27.875 12.546875 -25.8125 C 11.054688 -23.757812 10.3125 -21.019531 10.3125 -17.59375 C 10.3125 -13.8125 11.066406 -10.679688 12.578125 -8.203125 C 14.097656 -5.722656 16.191406 -4.484375 18.859375 -4.484375 C 21.628906 -4.484375 23.769531 -5.507812 25.28125 -7.5625 C 26.800781 -9.625 27.5625 -12.363281 27.5625 -15.78125 Z M 18.859375 0.6875 C 14.003906 0.6875 10.09375 -0.882812 7.125 -4.03125 C 4.15625 -7.1875 2.671875 -11.410156 2.671875 -16.703125 C 2.671875 -21.984375 4.15625 -26.1875 7.125 -29.3125 C 10.09375 -32.4375 14.003906 -34 18.859375 -34 C 23.773438 -34 27.726562 -32.4375 30.71875 -29.3125 C 33.707031 -26.1875 35.203125 -21.984375 35.203125 -16.703125 C 35.203125 -11.410156 33.707031 -7.1875 30.71875 -4.03125 C 27.726562 -0.882812 23.773438 0.6875 18.859375 0.6875 Z M 18.859375 0.6875 "/></g></g></g></svg>